# Blender v2.79 (sub 0) OBJ File: 'treeelka5.obj.blend'
# www.blender.org
mtllib treeelka5.obj.mtl
o Cone
v 0.426752 13.554879 -1.688813
v 0.426752 19.082193 1.074844
v 0.965914 13.554879 -1.635710
v 1.484357 13.554879 -1.478442
v 1.962157 13.554879 -1.223053
v 2.380952 13.554879 -0.879356
v 2.724649 13.554879 -0.460561
v 2.980038 13.554879 0.017239
v 3.137306 13.554879 0.535682
v 3.190409 13.554879 1.074844
v 3.137306 13.554879 1.614007
v 2.980038 13.554879 2.132450
v 2.724649 13.554879 2.610250
v 2.380952 13.554879 3.029045
v 1.962157 13.554879 3.372742
v 1.484357 13.554879 3.628131
v 0.965914 13.554879 3.785399
v 0.426751 13.554879 3.838502
v -0.112412 13.554879 3.785398
v -0.630856 13.554879 3.628130
v -1.108656 13.554879 3.372741
v -1.527451 13.554879 3.029044
v -1.871147 13.554879 2.610249
v -2.126536 13.554879 2.132448
v -2.283803 13.554879 1.614005
v -2.336906 13.554879 1.074842
v -2.283802 13.554879 0.535679
v -2.126534 13.554879 0.017236
v -1.871144 13.554879 -0.460564
v -1.527447 13.554879 -0.879359
v -1.108651 13.554879 -1.223055
v -0.630851 13.554879 -1.478444
v -0.112407 13.554879 -1.635711
v 0.582860 10.144754 -2.458459
v 0.582860 17.283501 1.110914
v 1.279210 10.144754 -2.389874
v 1.948800 10.144754 -2.186756
v 2.565897 10.144754 -1.856911
v 3.106788 10.144754 -1.413013
v 3.550685 10.144754 -0.872123
v 3.880531 10.144754 -0.255026
v 4.083648 10.144754 0.414564
v 4.152233 10.144754 1.110914
v 4.083649 10.144754 1.807264
v 3.880531 10.144754 2.476853
v 3.550685 10.144754 3.093951
v 3.106787 10.144754 3.634842
v 2.565897 10.144754 4.078739
v 1.948799 10.144754 4.408585
v 1.279209 10.144754 4.611702
v 0.582858 10.144754 4.680287
v -0.113492 10.144754 4.611702
v -0.783082 10.144754 4.408584
v -1.400180 10.144754 4.078738
v -1.941070 10.144754 3.634840
v -2.384967 10.144754 3.093949
v -2.714812 10.144754 2.476851
v -2.917929 10.144754 1.807261
v -2.986513 10.144754 1.110911
v -2.917928 10.144754 0.414560
v -2.714809 10.144754 -0.255029
v -2.384963 10.144754 -0.872127
v -1.941065 10.144754 -1.413017
v -1.400174 10.144754 -1.856914
v -0.783075 10.144754 -2.186759
v -0.113485 10.144754 -2.389875
v 0.709803 6.271420 -2.607307
v 0.709802 14.054130 1.284048
v 1.468969 6.271420 -2.532536
v 2.198961 6.271420 -2.311095
v 2.871725 6.271420 -1.951496
v 3.461407 6.271420 -1.467556
v 3.945347 6.271420 -0.877873
v 4.304946 6.271420 -0.205109
v 4.526387 6.271420 0.524882
v 4.601158 6.271420 1.284048
v 4.526388 6.271420 2.043213
v 4.304946 6.271420 2.773204
v 3.945347 6.271420 3.445969
v 3.461406 6.271420 4.035652
v 2.871723 6.271420 4.519591
v 2.198959 6.271420 4.879191
v 1.468967 6.271420 5.100632
v 0.709801 6.271420 5.175403
v -0.049365 6.271420 5.100631
v -0.779357 6.271420 4.879190
v -1.452121 6.271420 4.519590
v -2.041804 6.271420 4.035650
v -2.525743 6.271420 3.445967
v -2.885343 6.271420 2.773202
v -3.106783 6.271420 2.043210
v -3.181554 6.271420 1.284044
v -3.106781 6.271420 0.524878
v -2.885340 6.271420 -0.205113
v -2.525739 6.271420 -0.877877
v -2.041798 6.271420 -1.467559
v -1.452114 6.271420 -1.951499
v -0.779349 6.271420 -2.311097
v -0.049357 6.271420 -2.532537
v 0.448041 4.275747 -0.126249
v 0.448041 6.747181 -0.126249
v 1.518203 4.275747 0.491609
v 1.518203 6.747181 0.491609
v 1.518203 4.275747 1.727326
v 1.518203 6.747181 1.727326
v 0.448040 4.275747 2.345184
v 0.448040 6.747181 2.345184
v -0.622122 4.275747 1.727326
v -0.622122 6.747181 1.727326
v -0.622122 4.275747 0.491609
v -0.622122 6.747181 0.491609
v 1.440208 13.460356 0.536639
v 0.448041 13.460356 -0.036189
v 1.440208 13.460356 1.682294
v 0.448041 13.460356 2.255122
v -0.544126 13.460356 1.682294
v -0.544126 13.460356 0.536639
v 1.265260 15.799630 0.637645
v 0.448041 15.799630 0.165823
v 1.265260 15.799630 1.581288
v 0.448040 15.799630 2.053110
v -0.369179 15.799630 1.581288
v -0.369179 15.799630 0.637645
v 0.987927 17.287647 0.797763
v 0.448040 17.287647 0.486059
v 0.987927 17.287647 1.421170
v 0.448040 17.287647 1.732874
v -0.091846 17.287647 1.421170
v -0.091846 17.287647 0.797763
v 0.601279 18.285740 1.020993
v 0.448039 18.285740 0.932520
v 0.601279 18.285740 1.197939
v 0.448039 18.285740 1.286412
v 0.294799 18.285740 1.197939
v 0.294799 18.285740 1.020993
v 0.479913 18.986685 1.091065
v 0.448042 18.986685 1.072664
v 0.479913 18.986685 1.127867
v 0.448042 18.986685 1.146269
v 0.416170 18.986685 1.127867
v 0.416170 18.986685 1.091065
vn 0.0878 0.4455 -0.8910
vn 0.2599 0.4455 -0.8567
vn 0.4220 0.4455 -0.7896
vn 0.5680 0.4455 -0.6921
vn 0.6921 0.4455 -0.5680
vn 0.7896 0.4455 -0.4220
vn 0.8567 0.4455 -0.2599
vn 0.8910 0.4455 -0.0878
vn 0.8910 0.4455 0.0878
vn 0.8567 0.4455 0.2599
vn 0.7896 0.4455 0.4220
vn 0.6921 0.4455 0.5680
vn 0.5680 0.4455 0.6921
vn 0.4220 0.4455 0.7896
vn 0.2599 0.4455 0.8567
vn 0.0878 0.4455 0.8910
vn -0.0878 0.4455 0.8910
vn -0.2599 0.4455 0.8567
vn -0.4220 0.4455 0.7896
vn -0.5680 0.4455 0.6921
vn -0.6921 0.4455 0.5680
vn -0.7896 0.4455 0.4220
vn -0.8567 0.4455 0.2599
vn -0.8910 0.4455 0.0878
vn -0.8910 0.4455 -0.0878
vn -0.8567 0.4455 -0.2599
vn -0.7896 0.4455 -0.4220
vn -0.6921 0.4455 -0.5680
vn -0.5680 0.4455 -0.6921
vn -0.4220 0.4455 -0.7896
vn -0.2599 0.4455 -0.8567
vn -0.0878 0.4455 -0.8910
vn 0.0000 -1.0000 0.0000
vn 0.5000 -0.0000 -0.8660
vn 1.0000 -0.0000 0.0000
vn 0.5000 0.0000 0.8660
vn -0.5000 0.0000 0.8660
vn 0.9999 0.0116 0.0000
vn -1.0000 0.0000 0.0000
vn -0.5000 -0.0000 -0.8660
vn 0.4986 0.0746 -0.8636
vn -0.9999 0.0116 0.0000
vn 0.5000 0.0116 -0.8660
vn 0.5000 0.0116 0.8660
vn -0.5000 0.0116 -0.8660
vn -0.5000 0.0116 0.8660
vn -0.9831 0.1832 0.0000
vn -0.4986 0.0746 -0.8636
vn -0.4986 0.0746 0.8636
vn 0.9972 0.0746 0.0000
vn -0.9972 0.0746 0.0000
vn 0.4986 0.0746 0.8636
vn -0.4662 0.3612 -0.8075
vn 0.4915 0.1832 0.8514
vn 0.4915 0.1832 -0.8514
vn -0.4915 0.1832 -0.8514
vn -0.4915 0.1832 0.8514
vn 0.9831 0.1832 0.0000
vn -0.9853 0.1706 0.0000
vn -0.4662 0.3612 0.8075
vn 0.9325 0.3612 0.0000
vn -0.9325 0.3612 0.0000
vn 0.4662 0.3612 0.8075
vn 0.4662 0.3612 -0.8075
vn 0.0000 1.0000 0.0000
vn 0.4927 0.1706 0.8533
vn 0.4927 0.1706 -0.8533
vn -0.4927 0.1706 -0.8533
vn -0.4927 0.1706 0.8533
vn 0.9853 0.1706 0.0000
usemtl Material.001
s off
f 1//1 2//1 3//1
f 3//2 2//2 4//2
f 4//3 2//3 5//3
f 5//4 2//4 6//4
f 6//5 2//5 7//5
f 7//6 2//6 8//6
f 8//7 2//7 9//7
f 9//8 2//8 10//8
f 10//9 2//9 11//9
f 11//10 2//10 12//10
f 12//11 2//11 13//11
f 13//12 2//12 14//12
f 14//13 2//13 15//13
f 15//14 2//14 16//14
f 16//15 2//15 17//15
f 17//16 2//16 18//16
f 18//17 2//17 19//17
f 19//18 2//18 20//18
f 20//19 2//19 21//19
f 21//20 2//20 22//20
f 22//21 2//21 23//21
f 23//22 2//22 24//22
f 24//23 2//23 25//23
f 25//24 2//24 26//24
f 26//25 2//25 27//25
f 27//26 2//26 28//26
f 28//27 2//27 29//27
f 29//28 2//28 30//28
f 30//29 2//29 31//29
f 31//30 2//30 32//30
f 32//31 2//31 33//31
f 33//32 2//32 1//32
f 1//33 3//33 4//33 5//33 6//33 7//33 8//33 9//33 10//33 11//33 12//33 13//33 14//33 15//33 16//33 17//33 18//33 19//33 20//33 21//33 22//33 23//33 24//33 25//33 26//33 27//33 28//33 29//33 30//33 31//33 32//33 33//33
usemtl Material.002
f 34//1 35//1 36//1
f 36//2 35//2 37//2
f 37//3 35//3 38//3
f 38//4 35//4 39//4
f 39//5 35//5 40//5
f 40//6 35//6 41//6
f 41//7 35//7 42//7
f 42//8 35//8 43//8
f 43//9 35//9 44//9
f 44//10 35//10 45//10
f 45//11 35//11 46//11
f 46//12 35//12 47//12
f 47//13 35//13 48//13
f 48//14 35//14 49//14
f 49//15 35//15 50//15
f 50//16 35//16 51//16
f 51//17 35//17 52//17
f 52//18 35//18 53//18
f 53//19 35//19 54//19
f 54//20 35//20 55//20
f 55//21 35//21 56//21
f 56//22 35//22 57//22
f 57//23 35//23 58//23
f 58//24 35//24 59//24
f 59//25 35//25 60//25
f 60//26 35//26 61//26
f 61//27 35//27 62//27
f 62//28 35//28 63//28
f 63//29 35//29 64//29
f 64//30 35//30 65//30
f 65//31 35//31 66//31
f 66//32 35//32 34//32
f 34//33 36//33 37//33 38//33 39//33 40//33 41//33 42//33 43//33 44//33 45//33 46//33 47//33 48//33 49//33 50//33 51//33 52//33 53//33 54//33 55//33 56//33 57//33 58//33 59//33 60//33 61//33 62//33 63//33 64//33 65//33 66//33
usemtl Material.003
f 67//1 68//1 69//1
f 69//2 68//2 70//2
f 70//3 68//3 71//3
f 71//4 68//4 72//4
f 72//5 68//5 73//5
f 73//6 68//6 74//6
f 74//7 68//7 75//7
f 75//8 68//8 76//8
f 76//9 68//9 77//9
f 77//10 68//10 78//10
f 78//11 68//11 79//11
f 79//12 68//12 80//12
f 80//13 68//13 81//13
f 81//14 68//14 82//14
f 82//15 68//15 83//15
f 83//16 68//16 84//16
f 84//17 68//17 85//17
f 85//18 68//18 86//18
f 86//19 68//19 87//19
f 87//20 68//20 88//20
f 88//21 68//21 89//21
f 89//22 68//22 90//22
f 90//23 68//23 91//23
f 91//24 68//24 92//24
f 92//25 68//25 93//25
f 93//26 68//26 94//26
f 94//27 68//27 95//27
f 95//28 68//28 96//28
f 96//29 68//29 97//29
f 97//30 68//30 98//30
f 98//31 68//31 99//31
f 99//32 68//32 67//32
f 67//33 69//33 70//33 71//33 72//33 73//33 74//33 75//33 76//33 77//33 78//33 79//33 80//33 81//33 82//33 83//33 84//33 85//33 86//33 87//33 88//33 89//33 90//33 91//33 92//33 93//33 94//33 95//33 96//33 97//33 98//33 99//33
usemtl Material.004
f 100//34 101//34 103//34 102//34
f 102//35 103//35 105//35 104//35
f 104//36 105//36 107//36 106//36
f 106//37 107//37 109//37 108//37
f 105//38 103//38 112//38 114//38
f 108//39 109//39 111//39 110//39
f 110//40 111//40 101//40 100//40
f 100//33 102//33 104//33 106//33 108//33 110//33
f 112//41 113//41 119//41 118//41
f 111//42 109//42 116//42 117//42
f 103//43 101//43 113//43 112//43
f 107//44 105//44 114//44 115//44
f 101//45 111//45 117//45 113//45
f 109//46 107//46 115//46 116//46
f 123//47 122//47 128//47 129//47
f 113//48 117//48 123//48 119//48
f 116//49 115//49 121//49 122//49
f 114//50 112//50 118//50 120//50
f 117//51 116//51 122//51 123//51
f 115//52 114//52 120//52 121//52
f 125//53 129//53 135//53 131//53
f 121//54 120//54 126//54 127//54
f 118//55 119//55 125//55 124//55
f 119//56 123//56 129//56 125//56
f 122//57 121//57 127//57 128//57
f 120//58 118//58 124//58 126//58
f 135//59 134//59 140//59 141//59
f 128//60 127//60 133//60 134//60
f 126//61 124//61 130//61 132//61
f 129//62 128//62 134//62 135//62
f 127//63 126//63 132//63 133//63
f 124//64 125//64 131//64 130//64
f 136//65 137//65 141//65 140//65 139//65 138//65
f 133//66 132//66 138//66 139//66
f 130//67 131//67 137//67 136//67
f 131//68 135//68 141//68 137//68
f 134//69 133//69 139//69 140//69
f 132//70 130//70 136//70 138//70
